<mxfile host="app.diagrams.net" modified="2021-01-12T15:20:38.556Z" agent="5.0 (Windows NT 10.0; Win64; x64) AppleWebKit/537.36 (KHTML, like Gecko) Chrome/86.0.4240.111 Safari/537.36" etag="Vv7bL8uNsd9zf_gsAGTr" version="14.1.9" type="github">
  <diagram name="Page-1" id="b5b7bab2-c9e2-2cf4-8b2a-24fd1a2a6d21">
    <mxGraphModel dx="1038" dy="548" grid="1" gridSize="10" guides="1" tooltips="1" connect="1" arrows="1" fold="1" page="1" pageScale="1" pageWidth="1600" pageHeight="900" background="#ffffff" math="0" shadow="0">
      <root>
        <mxCell id="0" />
        <mxCell id="1" parent="0" />
        <mxCell id="pxDhUXXIACL6vUpGCmmt-8" value="用户管理" style="aspect=fixed;html=1;points=[];align=center;image;fontSize=12;image=img/lib/azure2/app_services/App_Service_Plans.svg;" vertex="1" parent="1">
          <mxGeometry x="139.5" y="510" width="64" height="64" as="geometry" />
        </mxCell>
        <mxCell id="pxDhUXXIACL6vUpGCmmt-9" value="后台基础数据配置" style="aspect=fixed;html=1;points=[];align=center;image;fontSize=12;image=img/lib/azure2/app_services/App_Service_Plans.svg;shadow=1;" vertex="1" parent="1">
          <mxGeometry x="264.5" y="510" width="64" height="64" as="geometry" />
        </mxCell>
        <mxCell id="pxDhUXXIACL6vUpGCmmt-10" value="样机管理" style="aspect=fixed;html=1;points=[];align=center;image;fontSize=12;image=img/lib/azure2/app_services/App_Service_Plans.svg;" vertex="1" parent="1">
          <mxGeometry x="484.5" y="510" width="64" height="64" as="geometry" />
        </mxCell>
        <mxCell id="pxDhUXXIACL6vUpGCmmt-11" value="试制管理" style="aspect=fixed;html=1;points=[];align=center;image;fontSize=12;image=img/lib/azure2/app_services/App_Service_Plans.svg;" vertex="1" parent="1">
          <mxGeometry x="383.5" y="510" width="64" height="64" as="geometry" />
        </mxCell>
        <mxCell id="pxDhUXXIACL6vUpGCmmt-24" value="邮件服务" style="aspect=fixed;html=1;points=[];align=center;image;fontSize=12;image=img/lib/azure2/app_services/App_Service_Plans.svg;" vertex="1" parent="1">
          <mxGeometry x="139.5" y="630" width="64" height="64" as="geometry" />
        </mxCell>
        <mxCell id="pxDhUXXIACL6vUpGCmmt-25" value="新品评审" style="aspect=fixed;html=1;points=[];align=center;image;fontSize=12;image=img/lib/azure2/app_services/App_Service_Plans.svg;" vertex="1" parent="1">
          <mxGeometry x="264.5" y="630" width="64" height="64" as="geometry" />
        </mxCell>
        <mxCell id="pxDhUXXIACL6vUpGCmmt-26" value="售后质量跟踪" style="aspect=fixed;html=1;points=[];align=center;image;fontSize=12;image=img/lib/azure2/app_services/App_Service_Plans.svg;" vertex="1" parent="1">
          <mxGeometry x="383.5" y="630" width="64" height="64" as="geometry" />
        </mxCell>
        <mxCell id="pxDhUXXIACL6vUpGCmmt-27" value="用户管理" style="aspect=fixed;html=1;points=[];align=center;image;fontSize=12;image=img/lib/azure2/app_services/App_Service_Plans.svg;" vertex="1" parent="1">
          <mxGeometry x="589.5" y="510" width="64" height="64" as="geometry" />
        </mxCell>
        <mxCell id="pxDhUXXIACL6vUpGCmmt-28" value="质量跟踪" style="aspect=fixed;html=1;points=[];align=center;image;fontSize=12;image=img/lib/azure2/app_services/App_Service_Plans.svg;" vertex="1" parent="1">
          <mxGeometry x="489.5" y="630" width="64" height="64" as="geometry" />
        </mxCell>
        <mxCell id="pxDhUXXIACL6vUpGCmmt-29" value="抽测计划" style="aspect=fixed;html=1;points=[];align=center;image;fontSize=12;image=img/lib/azure2/app_services/App_Service_Plans.svg;" vertex="1" parent="1">
          <mxGeometry x="589.5" y="630" width="64" height="64" as="geometry" />
        </mxCell>
        <mxCell id="pxDhUXXIACL6vUpGCmmt-30" value="实验室服务" style="aspect=fixed;html=1;points=[];align=center;image;fontSize=12;image=img/lib/azure2/app_services/App_Service_Plans.svg;" vertex="1" parent="1">
          <mxGeometry x="699.5" y="630" width="64" height="64" as="geometry" />
        </mxCell>
        <mxCell id="pxDhUXXIACL6vUpGCmmt-31" value="实验报告管理" style="aspect=fixed;html=1;points=[];align=center;image;fontSize=12;image=img/lib/azure2/app_services/App_Service_Plans.svg;" vertex="1" parent="1">
          <mxGeometry x="699.5" y="510" width="64" height="64" as="geometry" />
        </mxCell>
        <mxCell id="pxDhUXXIACL6vUpGCmmt-3" style="edgeStyle=orthogonalEdgeStyle;rounded=0;orthogonalLoop=1;jettySize=auto;html=1;" edge="1" parent="1" source="pxDhUXXIACL6vUpGCmmt-1" target="pxDhUXXIACL6vUpGCmmt-2">
          <mxGeometry relative="1" as="geometry" />
        </mxCell>
        <mxCell id="pxDhUXXIACL6vUpGCmmt-1" value="" style="aspect=fixed;html=1;points=[];align=center;image;fontSize=12;image=img/lib/azure2/azure_stack/Multi_Tenancy.svg;" vertex="1" parent="1">
          <mxGeometry x="465" y="70" width="58" height="55.44" as="geometry" />
        </mxCell>
        <mxCell id="pxDhUXXIACL6vUpGCmmt-6" style="edgeStyle=orthogonalEdgeStyle;rounded=0;orthogonalLoop=1;jettySize=auto;html=1;" edge="1" parent="1" source="pxDhUXXIACL6vUpGCmmt-2" target="pxDhUXXIACL6vUpGCmmt-5">
          <mxGeometry relative="1" as="geometry" />
        </mxCell>
        <mxCell id="pxDhUXXIACL6vUpGCmmt-2" value="CDN" style="aspect=fixed;html=1;points=[];align=center;image;fontSize=12;image=img/lib/azure2/app_services/CDN_Profiles.svg;" vertex="1" parent="1">
          <mxGeometry x="305" y="77.72000000000003" width="68" height="40" as="geometry" />
        </mxCell>
        <mxCell id="pxDhUXXIACL6vUpGCmmt-4" value="网关集群" style="aspect=fixed;html=1;points=[];align=center;image;fontSize=12;image=img/lib/azure2/analytics/Analysis_Services.svg;" vertex="1" parent="1">
          <mxGeometry x="307.5" y="310" width="63" height="48" as="geometry" />
        </mxCell>
        <mxCell id="pxDhUXXIACL6vUpGCmmt-7" style="edgeStyle=orthogonalEdgeStyle;rounded=0;orthogonalLoop=1;jettySize=auto;html=1;" edge="1" parent="1" source="pxDhUXXIACL6vUpGCmmt-5" target="pxDhUXXIACL6vUpGCmmt-4">
          <mxGeometry relative="1" as="geometry" />
        </mxCell>
        <mxCell id="pxDhUXXIACL6vUpGCmmt-5" value="Nginx" style="aspect=fixed;html=1;points=[];align=center;image;fontSize=12;image=img/lib/azure2/analytics/Azure_Synapse_Analytics.svg;" vertex="1" parent="1">
          <mxGeometry x="309" y="190" width="60" height="69" as="geometry" />
        </mxCell>
        <mxCell id="pxDhUXXIACL6vUpGCmmt-13" value="MySQL(主)" style="aspect=fixed;html=1;points=[];align=center;image;fontSize=12;image=img/lib/azure2/databases/Azure_Database_MariaDB_Server.svg;" vertex="1" parent="1">
          <mxGeometry x="216" y="960" width="48" height="64" as="geometry" />
        </mxCell>
        <mxCell id="pxDhUXXIACL6vUpGCmmt-14" value="MySQL(从)" style="aspect=fixed;html=1;points=[];align=center;image;fontSize=12;image=img/lib/azure2/databases/Azure_Database_MariaDB_Server.svg;" vertex="1" parent="1">
          <mxGeometry x="316" y="960" width="48" height="64" as="geometry" />
        </mxCell>
        <mxCell id="pxDhUXXIACL6vUpGCmmt-15" value="Redis" style="aspect=fixed;html=1;points=[];align=center;image;fontSize=12;image=img/lib/mscae/Cache_Redis_Product.svg;" vertex="1" parent="1">
          <mxGeometry x="426" y="982" width="60" height="50.4" as="geometry" />
        </mxCell>
        <mxCell id="pxDhUXXIACL6vUpGCmmt-18" value="ElasticSearch" style="aspect=fixed;html=1;points=[];align=center;image;fontSize=12;image=img/lib/azure2/app_services/Search_Services.svg;" vertex="1" parent="1">
          <mxGeometry x="548" y="972" width="72" height="52" as="geometry" />
        </mxCell>
        <mxCell id="pxDhUXXIACL6vUpGCmmt-19" value="Kafka" style="aspect=fixed;html=1;points=[];align=center;image;fontSize=12;image=img/lib/azure2/app_services/Notification_Hubs.svg;" vertex="1" parent="1">
          <mxGeometry x="700" y="976.4" width="67" height="56.00000000000001" as="geometry" />
        </mxCell>
        <mxCell id="pxDhUXXIACL6vUpGCmmt-20" value="" style="aspect=fixed;html=1;points=[];align=center;image;fontSize=12;image=img/lib/azure2/general/Service_Health.svg;" vertex="1" parent="1">
          <mxGeometry x="853" y="320" width="68" height="64" as="geometry" />
        </mxCell>
        <mxCell id="pxDhUXXIACL6vUpGCmmt-21" value="注册中心Nacos" style="aspect=fixed;html=1;points=[];align=center;image;fontSize=12;image=img/lib/azure2/general/Cache.svg;" vertex="1" parent="1">
          <mxGeometry x="546" y="310" width="64" height="64" as="geometry" />
        </mxCell>
        <mxCell id="pxDhUXXIACL6vUpGCmmt-22" value="配置中心zookeeper" style="aspect=fixed;html=1;points=[];align=center;image;fontSize=12;image=img/lib/azure2/general/Cache.svg;" vertex="1" parent="1">
          <mxGeometry x="699.5" y="310" width="64" height="64" as="geometry" />
        </mxCell>
      </root>
    </mxGraphModel>
  </diagram>
</mxfile>
